<svg xmlns="http://www.w3.org/2000/svg" viewBox="415 755 1218 538" preserveAspectRatio="xMidYMid meet">
<path d="M 726.307 775.829 C 792.146 782.596 804.844 796.215 846.706 845.088 C 868.353 870.36 897.558 896.51 919.951 921.825 C 943.967 948.973 972.362 983.157 1013.07 966.674 C 1028.4 960.394 1046.73 938.549 1058.78 925.968 L 1116.64 865.261 C 1164.88 814.084 1181.29 787.058 1254.42 776.648 C 1254.09 820.413 1254.01 864.179 1254.17 907.945 L 1254.22 1227.5 C 1254.1 1242.68 1254.21 1257.87 1254.57 1273.05 C 1224.54 1272.47 1190.31 1259.82 1169.14 1238.43 C 1125.7 1194.56 1130.21 1155.27 1130.12 1099.68 L 1130.06 1009.25 C 1108.46 1025.59 1107.94 1044.69 1091.89 1064.54 C 1038.74 1130.29 934.471 1126.1 888.538 1054.61 C 879.464 1040.49 877.805 1026.18 863.614 1015.07 L 862.548 1014.25 C 862.737 1030.17 862.794 1046.09 862.721 1062.02 C 832.417 1050.14 823.348 1039.71 800.605 1017.06 L 757.6 973.906 C 747.48 963.675 736.924 952.368 725.955 943.192 L 725.362 839.672 C 725.296 819.743 724.946 795.543 726.307 775.829 z" fill="currentColor"></path>
<path d="M 435.066 777.501 C 512.759 782.293 527.425 808.574 578.409 860.021 L 738.918 1021.75 C 780.145 1062.87 802.312 1097.82 862.437 1112.38 C 862.962 1165.3 863.118 1218.22 862.903 1271.14 C 792.874 1265.85 771.608 1235.06 726.183 1188.9 L 587.443 1049.84 C 543.726 1005.7 502.809 949.343 435.181 945.679 L 435.066 777.501 z" fill="currentColor"></path>
<path d="M 1303.74 1025.15 C 1306.41 1057.64 1314.85 1082.45 1340.08 1104.52 C 1419.35 1173.87 1508.48 1094.23 1581.96 1183.64 C 1601.25 1207.11 1610.59 1228.67 1613.14 1259.42 C 1613.48 1264.04 1613.68 1268.66 1613.74 1273.29 L 1487.23 1273.09 C 1463.86 1273.11 1417.89 1274.89 1397.39 1270.13 C 1373.93 1264.75 1352.44 1252.93 1335.33 1235.99 C 1288.66 1189.08 1304.93 1134.05 1301.62 1074.29 C 1301.51 1072.26 1301.6 1068.39 1301.84 1066.42 C 1303.11 1056.3 1300.79 1031.16 1303.74 1025.15 z" fill="currentColor"></path>
<path d="M 1301.35 956.27 C 1301.26 904.24 1293.74 855.574 1333.79 814.994 C 1378.65 769.549 1425.48 777.934 1484.17 778.049 C 1527.25 778.401 1570.33 778.119 1613.4 777.202 C 1611.81 819.425 1601.24 846.321 1570.66 875.836 C 1498.14 945.855 1406.9 870.82 1335.77 945.396 C 1315.33 966.82 1307.11 987.728 1303.76 1016.74 L 1303.74 1025.15 C 1300.79 1031.16 1303.11 1056.3 1301.84 1066.42 C 1300.95 1059.02 1301.24 1042.92 1301.15 1035.02 C 1300.93 1008.77 1300.99 982.518 1301.35 956.27 z" fill="currentColor"></path>
<path d="M 435.212 997.753 L 437.141 998.013 C 485.96 1004.94 504.44 1029.09 537.56 1062.13 C 547.299 1071.85 564.736 1087.83 572.751 1098.55 C 572.042 1156.3 572.032 1214.07 572.721 1271.83 C 530.604 1270.8 501.216 1262.2 470.585 1231.81 C 428.286 1189.84 434.957 1140.15 434.933 1085.87 C 434.76 1056.5 434.853 1027.12 435.212 997.753 z" fill="currentColor"></path>
</svg>
